<?xml version="1.0" encoding="UTF-8" standalone="no"?>
<svg width="3033px" height="2750px" viewBox="0 0 3033 2750" version="1.1" xmlns="http://www.w3.org/2000/svg" xmlns:xlink="http://www.w3.org/1999/xlink" xmlns:sketch="http://www.bohemiancoding.com/sketch/ns">
    <title>SW-White</title>
    <description>Created with Sketch (http://www.bohemiancoding.com/sketch)</description>
    <defs></defs>
    <g id="Page-1" stroke="none" stroke-width="1" fill="none" fill-rule="evenodd" sketch:type="MSPage">
        <g id="Group" sketch:type="MSLayerGroup" transform="translate(804.867188, 618.113778)">
            <path d="M1101.50459,506.635299 C1073.83533,506.635299 1052.20277,515.69034 1052.20277,515.69034 L1061.25781,463.816136 L1069.23348,443.909264 C1069.23348,443.909264 1037.90601,446.682008 1020.44226,463.240905 C1002.9785,479.799802 989.114788,498.032687 989.114788,498.032687 C989.114788,498.032687 983.368942,477.576438 990.26525,450.986545 C997.161559,424.396652 984.655131,431.357594 984.655131,431.357594 C984.655131,431.357594 940.763066,467.144722 932.716294,486.89001 C924.669523,506.635297 906.998943,546.597697 906.998943,546.597697 C906.998943,546.597697 901.324192,567.144429 890.472362,567.144433 C879.620531,567.144436 813.572376,608.748501 813.572376,608.748501 C813.572376,608.748501 787.919658,608.742034 772.110499,594.012246 C756.301341,579.282457 731.656892,541.498177 731.656892,541.498177 L626.783874,541.498177 L590.932116,602.059017 L568.659687,668.501432 L422.150284,717.518871 L290.616277,805.664947 L172.6616,926.69614 L80.5018341,1084.08969 L35.0779729,1205.34063 L20.7101238,1361.63543 L31.9949931,1432.83481 L87.0168103,1340.60395 L218.828738,1267.69826 L249.005745,1267.69826 L216.392085,1332.00134 L159.715671,1478.25221 L160.730404,1620.79316 L241.540668,1538.25721 L311.156549,1505.13941 L311.699464,1625.19465 L342.219024,1777.48222 L410.600421,1896.86528 L530.571637,2013.5273 L669.719376,2089.16695 L901.627966,2160.28231 L1144.78264,2169.40198 L1366.36939,2155.17632 L1557.80498,2106.97972 L1720.43378,2028.09551 L1892.26628,1898.00928 L2006.47226,1744.86856 L2077.6264,1594.98533 L2110.95748,1449.01884 L2101.25611,1309.02441 L2064.34438,1215.63662 L1967.58276,1156.15515 L1836.98593,1136.11255 L1772.46957,1146.18232 L1752.93757,1053.44086 L1728.35129,942.641027 L1665.2116,829.86343 L1587.98846,748.684759 L1525.63729,634.543412 L1374.12532,432.760124 L1281.59068,445.628494 L1207.60563,524.144298 C1207.60563,524.144298 1129.17385,506.635299 1101.50459,506.635299 Z" id="Path-11" sketch:type="MSShapeGroup"></path>
            <path d="M1144.08461,513.906478 L1193.36058,424.60994 L1264.54057,319.368516 L1384.28558,241.867446 L1509.34339,189.004361 L1677.79559,162.065451 L1739.57153,167.236067 L1748.05134,192.959882 L1734.47201,241.453796 L1701.99407,301.368309 L1682.02257,383.839633 L1682.02257,472.18607 L1659.68551,553.590955 L1609.39481,670.556752 L1573.60768,737.302941 L1491.07172,674.234352 L1409.62159,617.557938 L1342.59748,597.579971 L1365.87818,558.85852 L1385.41665,528.106282 L1344.96304,547.431459 L1293.50895,564.533272 L1299.68784,544.051169 L1336.25702,480.459056 L1306.99779,501.742604 L1277.18919,523.439801 C1277.18919,523.439801 1262.09099,529.250281 1238.8103,529.250281 C1215.5296,529.250281 1190.69125,535.687698 1175.01136,524.797088 C1159.33147,513.906478 1144.08461,513.906478 1144.08461,513.906478 Z" id="Path-9" sketch:type="MSShapeGroup"></path>
            <path d="M357.821358,759.271595 C357.821358,759.271595 300.569712,679.702279 300.569713,660.648559 C300.569713,641.594839 253.219796,546.145268 253.219797,495.053119 C253.219797,443.960971 231.800521,377.512093 242.510159,301.297213 C253.219797,225.082333 275.905875,115.61393 275.905875,115.61393 L314.911709,37.6022619 L349.826293,20.1643595 L387.403745,51.1169593 L445.941581,126.116744 L535.949078,214.120628 C535.949078,214.120628 657.807563,286.942302 702.947047,304.33495 C748.086531,321.727609 829.123003,375.030196 829.123003,375.030196 C829.123003,375.030196 864.541717,401.600699 864.541723,415.619532 C864.541729,429.638364 879.342611,525.960476 879.342611,525.960476 L879.342611,574.596583 C879.342611,574.596583 864.296112,598.749823 846.709561,607.300729 C829.12301,615.851635 814.80686,615.851635 814.80686,615.851635 L743.239072,472.52216 L383.448223,606.059781 L403.626552,725.946975 L357.821358,759.271595 Z" id="Path-10" sketch:type="MSShapeGroup"></path>
            <path d="M411.072239,731.285636 C411.072239,731.285636 344.390686,649.615756 328.646158,587.607145 C312.901632,525.598533 290.564569,490.774435 290.564571,430.491516 C290.564571,370.208597 290.693836,302.130974 303.775495,244.717748 C316.857153,187.304521 330.585139,127.183187 343.65387,114.172621 C356.722602,101.162059 374.839148,99.5074615 374.839148,99.5074615 L399.774443,142.552839 C399.774443,142.552839 449.696741,204.199496 475.207267,220.583898 C500.717794,236.968287 543.446471,280.130018 579.233597,297.807047 C615.020723,315.48409 718.103415,368.85131 718.103415,368.85131 C718.103415,368.85131 795.694971,409.395403 795.694971,419.943459 C795.694971,430.491516 818.174223,443.734756 818.174224,468.301645 C818.174224,492.868534 827.875593,537.387538 819.460415,570.666915 C811.045237,603.946292 817.443875,627.601859 792.295291,607.604503 C767.146708,587.607145 746.464244,554.579836 746.464244,554.579836 L733.020642,531.505962 L704.776153,567.150896 L681.353262,610.842601 L667.773932,646.26132 C667.773932,646.26132 645.204193,634.200858 645.204193,616.937464 C645.204193,599.67407 630.403305,538.609096 630.403305,538.609096 L614.154645,559.084735 L583.906541,625.326789 L570.76025,668.785816 L509.759908,686.895898 L455.84331,703.997711 L411.072239,731.285636 Z" id="Path-7" sketch:type="MSShapeGroup"></path>
            <path d="M1197.32903,512.297124 C1197.32903,512.297124 1194.43348,496.798202 1219.80828,456.764708 C1245.18308,416.731214 1286.75483,348.724693 1320.68054,327.809546 C1354.60624,306.894405 1376.23233,285.791822 1447.70964,262.717954 C1519.18695,239.644081 1555.41357,227.803366 1592.7842,216.311676 C1630.15483,204.819982 1686.60502,210.042303 1693.72755,210.042304 C1700.85008,210.042305 1688.98997,242.242315 1688.98997,242.242315 L1664.99185,282.689459 C1664.99185,282.689459 1634.67911,331.894327 1634.67912,352.88057 C1634.67912,373.866814 1623.96948,442.332226 1623.96948,442.332226 C1623.96948,442.332226 1626.13467,511.60556 1619.37409,523.026152 C1612.61352,534.446743 1579.12731,615.050189 1579.12731,615.050189 L1534.86684,704.068807 L1501.95587,684.097302 L1414.79867,620.498726 L1339.87645,594.141511 L1363.73238,561.66358 L1384.13692,527.880068 L1348.05895,547.211708 L1300.78013,563.020866 L1287.76957,558.057075 L1314.57275,527.233741 L1334.10475,483.910442 L1314.9153,497.354044 L1285.31352,517.396644 L1253.68874,527.970553 L1211.587,529.760879 L1197.32903,512.297124 Z" id="Path-8" sketch:type="MSShapeGroup"></path>
            <path d="M1566.27833,1214.93213 L1513.62207,1106.81455 L1511.90284,1052.94319 L1609.18475,976.098144 L1749.68654,1028.60252 L1765.78009,1098.56095 L1770.9507,1148.92275 L1661.10743,1174.77583 L1566.27833,1214.93213 Z" id="Path" sketch:type="MSShapeGroup"></path>
            <path d="M1644.10256,1175.3446 C1697.10347,1175.3446 1786.62412,1175.3446 1757.82381,1085.62008 C1729.02349,995.895558 1732.12584,976.5215 1654.32912,976.521488 C1576.53239,976.521477 1558.36249,1020.96445 1558.36249,1075.78763 C1558.36249,1130.61082 1591.10165,1175.3446 1644.10256,1175.3446 Z" id="Oval-6" stroke="#FFFFFF" stroke-width="4" fill="#FFFFFF" sketch:type="MSShapeGroup"></path>
            <ellipse id="Oval-7" sketch:type="MSShapeGroup" transform="translate(1663.763832, 1064.331474) rotate(-14.000000) translate(-1663.763832, -1064.331474) " cx="1663.76383" cy="1064.33147" rx="39.7103306" ry="72.8022728"></ellipse>
            <path d="M1641.53902,1035.89999 C1628.24218,1044.58728 1631.19078,1063.78244 1638.06964,1057.89883 C1644.94851,1052.01522 1656.0162,1044.94681 1666.24013,1050.57179 C1676.46405,1056.19676 1678.16214,1031.59596 1666.24013,1031.59596 C1654.31811,1031.59596 1654.83587,1027.2127 1641.53902,1035.89999 Z" id="Rectangle-2" fill="#FFFFFF" sketch:type="MSShapeGroup" transform="translate(1653.397100, 1044.745174) rotate(-26.000000) translate(-1653.397100, -1044.745174) "></path>
            <path d="M1845.19428,1129.59757 C2011.7269,1129.59755 2094.77992,1206.09684 2113.94989,1311.31887 C2133.11986,1416.54091 2116.89723,1523.61144 2078.32434,1619.94001 C2039.75146,1716.26859 1955.81962,1901.81614 1741.43296,2025.23874 C1527.0463,2148.66135 1450.18509,2157.2575 1221.91532,2181.10696 C993.645555,2204.95643 751.686566,2152.64272 628.082991,2087.66101 C504.479417,2022.67929 394.384076,1925.25196 346.077596,1821.19331 C297.771116,1717.13467 278.40716,1612.44262 295.237515,1526.39064 C295.237515,1526.39064 178.653052,1570.33442 158.384237,1675.11048 C133.694546,1620.04342 102.218421,1407.2855 237.171498,1278.49839 C237.171498,1278.49839 69.5272014,1308.38455 27.8455738,1489.14928 C2.5935781,1420.3607 -60.1777027,1235.50472 158.384243,923.593771 C158.384243,923.593771 220.58675,820.200841 365.687158,738.647301 C510.787567,657.093762 505.410128,677.427208 558.460647,662.62632 C558.460647,662.62632 597.266122,542.086336 639.548832,517.500056 C639.548832,517.500056 635.412335,604.043244 665.466545,633.33478 C665.466545,633.33478 693.49129,548.329859 734.313296,514.966454 C734.313296,514.966454 775.119151,599.379991 814.422304,617.616108 C828.974509,624.368128 742.864192,608.089247 734.313285,553.041578 C734.313285,553.041578 688.605043,588.938579 672.931611,670.272368 C672.931611,670.272368 626.505949,627.756978 626.505953,553.041578 C626.505953,553.041578 594.861769,602.039627 577.255825,690.941905 C577.255825,690.941905 488.734883,687.128578 379.815855,759.892069 C270.896829,832.655562 262.313618,832.287156 186.951886,933.579523 C133.739789,1002.46505 123.605377,1028.62191 88.1220316,1109.84582 C52.6386927,1191.06974 35.0650517,1346.2787 35.0650462,1403.96338 C35.0650462,1403.96338 95.6840428,1241.51555 274.865277,1255.74121 C274.865277,1255.74121 230.482002,1300.05986 195.134392,1419.77901 C195.134392,1419.77901 166.146604,1494.21002 166.146624,1590.69372 C166.146624,1590.69372 254.370246,1489.14929 325.065495,1489.14928 C325.065495,1489.14928 316.811901,1742.70982 402.127063,1861.00706 C487.442226,1979.30429 523.145322,1992.84484 672.931611,2075.54237 C822.717894,2158.23991 1193.83885,2159.66184 1267.54598,2151.82189 C1341.25312,2143.98194 1559.44664,2119.07896 1696.17066,2025.23874 C1832.89467,1931.39853 1933.6313,1874.15335 2040.41098,1646.36186 C2040.41098,1646.36186 2094.63134,1551.0157 2094.63135,1439.0654 C2094.63135,1327.1151 2085.50521,1218.41583 1995.36199,1179.48109 C1905.21876,1140.54635 1851.95495,1145.9044 1789.59732,1155.88369 C1727.2397,1165.86298 1631.05967,1181.63336 1559.94432,1235.33667 C1488.82896,1289.03998 1491.02002,1242.92455 1491.02002,1242.92455 C1491.02002,1242.92455 1678.66167,1129.5976 1845.19428,1129.59757 Z" id="Path-1" stroke="#FFFFFF" stroke-width="3" fill="#FFFFFF" sketch:type="MSShapeGroup"></path>
            <path d="M364.601328,749.518521 C364.601328,749.518521 292.81379,687.884782 261.03389,490.509445 C229.253992,293.134107 268.117635,247.296596 268.117636,205.052664 C268.117636,162.808731 294.319725,56.3780761 334.702241,40.2845198 C376.803982,41.86802 381.127903,59.8811595 412.384283,104.516496 C443.640663,149.151838 535.134699,226.659394 587.655238,257.980378 C640.175776,289.301374 755.73903,338.713093 787.867951,358.619954 C819.996872,378.526815 857.645408,414.740537 857.645414,441.543708 C857.64542,468.346878 877.47472,573.497837 863.895396,587.81397 C863.895396,587.81397 893.25156,587.484352 906.191034,563.124279 C919.130507,538.764204 933.03299,476.503549 983.847223,446.830662 C983.847223,446.830662 967.66319,491.149314 975.755209,527.136792 C975.755209,527.136792 1008.0457,465.212214 1056.56547,456.021432 C1056.56547,456.021432 1035.26253,483.794114 1052.22216,523.459191 C1052.22216,523.459191 1062.03344,461.462959 1095.68118,432.462813 C1129.32892,403.462666 1001.34975,450.488884 992.59849,478.662267 C992.59849,478.662267 994.46637,439.184625 1003.52142,415.470877 C1012.57646,391.757129 902.506967,471.074398 902.50697,533.79396 C902.50697,533.79396 885.702459,584.517712 885.702468,539.100304 C885.702475,493.682896 884.073719,430.336407 873.98456,407.197891 C863.895402,384.059374 803.444425,336.638384 730.726181,303.016443 C658.007937,269.394502 562.487257,235.229665 528.703752,192.1649 C494.920247,149.100134 454.10469,132.941958 409.353009,70.933345 C364.601328,8.92473237 342.264269,-23.9474575 317.18678,20.1643595 C292.109292,64.2761771 268.117636,82.6900308 245.845206,192.164904 C223.572767,301.639775 223.06865,386.043603 245.845206,508.315749 C268.621769,630.587894 293.699256,666.148798 313.09553,704.023564 C332.491805,741.89833 348.604735,762.076654 348.604735,762.076654" id="Path-3" stroke="#FFFFFF" stroke-width="3" fill="#FFFFFF" sketch:type="MSShapeGroup"></path>
            <path d="M1202.9133,501.797542 C1199.5427,490.664559 1187.14908,501.789307 1187.37559,508.496721 C1188.4434,540.116571 1215.58777,536.773527 1215.58777,536.773527 C1215.58777,536.773527 1268.90974,536.870477 1291.68631,522.683599 C1314.46287,508.496721 1327.47343,486.670258 1327.47343,486.670258 C1327.47343,486.670258 1302.49289,536.586091 1282.79285,551.897579 C1263.0928,567.209065 1287.96346,575.042548 1287.96346,575.042548 C1287.96346,575.042548 1339.46926,566.989317 1374.33214,537.743018 C1374.33214,537.743018 1337.72418,588.421518 1318.61875,596.190368 C1299.51333,603.959218 1386.58004,606.466958 1431.28001,640.250479 C1475.97999,674.033991 1611.40489,771.435463 1638.2016,811.10702 C1664.99832,850.778571 1721.38388,934.225851 1736.11368,1018.07385 C1750.84347,1101.92185 1762.05724,1146.75756 1762.05724,1146.75756 L1787.91679,1146.75756 C1787.91679,1146.75756 1753.26073,862.748553 1586.48898,735.486762 C1419.71722,608.224976 1448.44646,628.791103 1351.93691,585.306221 C1351.93691,585.306221 1398.22685,537.503877 1398.22685,508.496721 C1398.22685,508.496721 1335.29399,555.49762 1299.51333,555.49762 C1299.51333,555.49762 1349.99146,487.142077 1349.99147,452.001278 C1349.99147,452.001278 1293.27304,538.434587 1215.58777,526.532476 C1193.8421,515.321936 1202.9133,501.797542 1202.9133,501.797542 Z" id="Path-4" stroke="#FFFFFF" stroke-width="3" fill="#FFFFFF" sketch:type="MSShapeGroup"></path>
            <path d="M1166.53801,501.328955 C1166.53801,501.328955 1236.46414,342.067531 1324.83642,290.05759 C1413.20871,238.047656 1468.79929,202.628944 1574.49961,190.057874 C1680.19993,177.486814 1708.41857,167.488135 1724.73832,186.541855 C1741.05808,205.595575 1733.00484,220.028057 1722.23057,241.518429 C1711.4563,263.0088 1682.59134,313.913517 1674.75139,366.731358 C1666.91144,419.549198 1671.43573,474.551628 1657.21008,515.160352 C1642.98442,555.769076 1602.84751,654.605378 1588.67356,678.758641 C1574.49961,702.911905 1563.51205,727.20085 1563.51205,727.20085 L1586.35971,745.453124 C1586.35971,745.453124 1670.31759,584.56941 1685.18957,526.807165 C1700.06156,469.04492 1680.16115,420.092116 1694.31571,370.564077 C1708.47027,321.036038 1710.09257,295.254054 1736.24942,257.53441 C1762.40627,219.814765 1771.18986,167.15851 1746.18347,156.313141 C1721.17708,145.467773 1679.81213,149.487928 1627.15587,156.313141 C1574.49961,163.138354 1477.23385,177.467418 1421.89533,207.870643 C1366.55682,238.273868 1276.7303,280.026603 1241.95791,333.135284 C1207.18551,386.243964 1140.5492,487.245489 1140.5492,487.245489 C1140.5492,487.245489 1131.15161,528.610417 1166.53801,501.328955 Z" id="Path-6" stroke="#FFFFFF" stroke-width="3" fill="#FFFFFF" sketch:type="MSShapeGroup"></path>
            <path d="M750.374522,1712.8883 C750.374522,1712.8883 852.002979,1805.17084 1026.40786,1805.17087 C1200.81273,1805.17089 1231.04145,1801.86167 1332.12052,1788.71538 C1433.1996,1775.56909 1508.63243,1741.36547 1508.63243,1741.36547 C1508.63243,1741.36547 1569.47766,1724.2378 1548.99555,1777.49514 C1528.51345,1830.75249 1392.26127,1920.5467 1231.00267,1934.84345 C1069.74406,1949.1402 938.229473,1931.04305 859.054413,1891.58479 C779.879356,1852.12653 839.929594,1810.96196 795.152056,1787.10603 C750.374522,1763.2501 740.886439,1765.46054 722.201128,1735.21243 C703.515815,1704.96433 750.374522,1712.8883 750.374522,1712.8883 Z" id="Path-12" stroke="#FFFFFF" stroke-width="4" sketch:type="MSShapeGroup"></path>
            <path d="M916.83604,1797.72932 C916.83604,1797.72932 919.808141,1854.70202 948.11245,1854.70202 C976.41676,1854.70201 985.139877,1808.1391 985.139877,1808.1391 C985.139877,1808.1391 968.607564,1810.84371 948.11245,1808.1391 C927.617337,1805.43449 916.83604,1797.72932 916.83604,1797.72932 Z" id="Path-13" stroke="#FFFFFF" stroke-width="2" fill="#FFFFFF" sketch:type="MSShapeGroup"></path>
            <path d="M1284.13398,1804.68289 C1284.13398,1804.68289 1321.04894,1846.92682 1344.76591,1843.33001 C1368.48288,1839.7332 1368.48288,1789.02885 1368.48288,1789.02885 C1368.48288,1789.02885 1352.70604,1796.64904 1325.82301,1800.86633 C1298.93997,1805.08361 1284.13398,1804.68289 1284.13398,1804.68289 Z" id="Path-14" stroke="#FFFFFF" stroke-width="3" fill="#FFFFFF" sketch:type="MSShapeGroup"></path>
            <path d="M1075.44468,1401.99209 C989.599533,1445.31538 969.653882,1469.65606 919.776828,1484.25012 C869.899773,1498.84419 839.593499,1497.66464 825.432476,1470.39287 C811.271452,1443.1211 777.804662,1424.355 777.80464,1319.11358 C777.804627,1213.87215 794.557432,1167.70501 854.478411,1127.82664 C914.399387,1087.94826 983.006998,1050.24801 1029.22584,1057.14432 C1075.44468,1064.04063 1130.72503,1088.37484 1149.41035,1118.62294 C1168.09566,1148.87104 1188.55191,1179.45524 1207.37295,1203.8153 C1226.19399,1228.17537 1234.25369,1257.4346 1241.86742,1283.95986 C1249.48115,1310.48512 1254.30275,1343.80973 1215.07071,1351.21019 C1175.83866,1358.61064 1161.28984,1358.66879 1075.44468,1401.99209 Z" id="Path-16" fill="#FFFFFF" sketch:type="MSShapeGroup"></path>
            <path d="M910.321064,1111.51981 C1050.27025,1042.87988 1114.45699,1099.33008 1137.51147,1142.99593 C1160.56596,1186.66178 1233.27772,1254.371 1210.28789,1332.29219 C1085.86348,1370.65169 1161.34155,1342.42659 1038.49418,1401.63015 C915.64681,1460.83371 872.052044,1509.5603 822.704976,1431.04448 C773.35791,1352.52867 770.371879,1180.15974 910.321064,1111.51981 Z" id="Path-15" sketch:type="MSShapeGroup"></path>
            <path d="M976.970304,1433.7429 C1024.85518,1409.07272 1071.45807,1385.88088 1104.75885,1369.01971 C1137.63245,1352.37485 1153.57157,1351.69862 1187.22048,1343.06645 C1199.23246,1340.12243 1196.92831,1311.64188 1196.92831,1274.34897 C1196.92831,1179.31285 1116.92317,1102.27087 1018.23182,1102.27087 C919.540469,1102.27087 839.535331,1179.31285 839.535331,1274.34897 C839.535331,1369.38508 878.278954,1433.7429 976.970304,1433.7429 Z" id="Oval-4" stroke="#FFFFFF" stroke-width="5" fill="#FFFFFF" sketch:type="MSShapeGroup"></path>
            <path d="M1016.54045,1362.05012 C1064.49548,1362.05012 1112.03088,1315.09615 1112.03088,1253.88213 C1112.03088,1192.66811 1092.35342,1134.47386 1044.39839,1134.47386 C996.443359,1134.47386 938.370362,1192.66811 938.370362,1253.88213 C938.370362,1315.09615 968.585422,1362.05012 1016.54045,1362.05012 Z" id="Oval-5" sketch:type="MSShapeGroup" transform="translate(1025.200619, 1248.261990) rotate(-21.000000) translate(-1025.200619, -1248.261990) "></path>
            <path d="M964.68344,1192.75636 C942.636092,1203.17426 948.027293,1225.96171 964.68344,1216.9066 C981.339585,1207.85149 1013.62033,1202.81495 1034.21015,1216.9066 C1054.79998,1230.99825 1050.30283,1200.64408 1028.55286,1192.75636 C1006.80289,1184.86863 986.730783,1182.33845 964.68344,1192.75636 Z" id="Rectangle-1" fill="#FFFFFF" sketch:type="MSShapeGroup" transform="translate(998.792739, 1203.223508) rotate(-42.000000) translate(-998.792739, -1203.223508) "></path>
            <path d="M792.986861,1346.47259 C798.939533,1346.47259 804.75726,1252.20714 847.475459,1199.89533 C897.91158,1138.13232 916.884522,1129.23092 997.64953,1103.68956 C1078.41454,1078.1482 1145.0541,1146.48644 1145.0541,1146.48644 L1119.33352,1107.81565 C1119.33352,1107.81565 1089.08864,1081.33953 1046.31472,1075.00686 C1003.5408,1068.67418 1006.56238,1075.12535 963.927422,1085.00287 C921.29246,1094.8804 919.098181,1102.58559 884.01232,1122.09379 C848.92646,1141.60198 845.45569,1156.9268 826.715435,1181.76379 C807.975178,1206.60078 796.942382,1248.31284 792.986861,1287.97435 C789.031342,1327.63585 787.034189,1346.47259 792.986861,1346.47259 Z" id="Path-17" sketch:type="MSShapeGroup"></path>
            <path d="M797.010246,1370.76157 C797.010246,1370.76157 797.501453,1330.56003 809.455273,1301.06166 C821.409091,1271.56329 835.473163,1225.67408 878.634883,1179.60389 C921.7966,1133.53371 989.92916,1118.73605 1023.78377,1111.19988 C1057.63838,1103.66371 1107.57683,1121.08868 1129.40653,1140.49142 C1151.23622,1159.89415 1155.76697,1145.86239 1155.76697,1145.86239 C1155.76697,1145.86239 1129.93005,1109.20596 1070.63924,1099.42057 C1011.34844,1089.63518 998.001784,1101.78612 964.302294,1111.19988 C930.602805,1120.61363 880.858248,1153.36625 856.714703,1186.48081 C832.571154,1219.59538 827.810959,1226.5757 816.66505,1250.72249 C805.519143,1274.86927 788.469034,1318.80658 788.469035,1333.67856 C788.469037,1348.55054 797.010246,1370.76157 797.010246,1370.76157 Z" id="Path-18" fill="#FFFFFF" sketch:type="MSShapeGroup"></path>
            <path d="M1515.88422,1058.97342 L1594.25136,977.626707 L1666.81126,968.36161 C1666.81126,968.36161 1687.99402,978.630958 1709.97298,982.0799 C1718.88522,983.47841 1751.86467,1033.76021 1751.86467,1033.76021 L1737.19951,988.924503 C1737.19951,988.924503 1729.68631,973.437119 1717.02441,963.136056 C1705.4038,953.682134 1688.6345,949.414534 1688.6345,949.414534 L1627.42733,944.812686 L1572.81916,963.136056 L1533.88442,1000.99143 L1515.88422,1058.97342 Z" id="Path-21" sketch:type="MSShapeGroup"></path>
            <path d="M1735.94241,978.163159 C1735.94241,978.163159 1723.52968,936.972739 1653.20284,936.972739 C1582.876,936.972739 1561.13357,954.333083 1536.03669,985.563603 C1510.93981,1016.79412 1486.07561,1063.29735 1497.86462,1090.53357 C1507.9431,1113.81796 1540.22801,1186.09725 1549.38457,1206.58173 C1550.93862,1210.05836 1551.82646,1212.04305 1551.82646,1212.04305 L1572.65112,1206.94353 C1572.65112,1206.94353 1515.39947,1100.89742 1515.39947,1082.59667 C1515.39947,1064.29593 1539.1843,990.824704 1572.65111,972.578894 C1606.11793,954.333083 1641.85658,951.00773 1664.00297,954.333083 C1686.14937,957.658435 1699.94846,957.810322 1713.98991,967.98674 C1728.03137,978.163159 1746.82333,1008.32724 1746.82333,1008.32724 L1735.94241,978.163159 Z" id="Path-19" fill="#FFFFFF" sketch:type="MSShapeGroup"></path>
            <path d="M1511.61846,1069.04966 C1511.61846,1069.04966 1581.07922,975.487354 1651.27033,975.487365 C1721.46144,975.487374 1754.36595,1043.26121 1754.36595,1043.26121 L1750.92103,1026.80573 C1750.92103,1026.80573 1717.83232,958.602073 1645.33059,964.735715 C1572.40228,965.233387 1516.49176,1049.58229 1516.49176,1049.58229 L1511.61846,1069.04966 Z" id="Path-20" fill="#FFFFFF" sketch:type="MSShapeGroup"></path>
            <path d="M1596.15606,1557.69864 C1713.12358,1557.69864 1837.11817,1421.17946 1837.11817,1331.6262 C1837.11817,1242.07294 1740.9223,1195.25407 1596.15606,1210.48427 C1461.27071,1216.75893 1384.36763,1297.92248 1384.36763,1387.47574 C1384.36763,1477.029 1479.18853,1557.69864 1596.15606,1557.69864 Z" id="Oval-2" stroke="#FFFFFF" stroke-width="4" sketch:type="MSShapeGroup" transform="translate(1610.742900, 1382.671200) rotate(-11.000000) translate(-1610.742900, -1382.671200) "></path>
            <ellipse id="Oval-3" fill="#FFFFFF" sketch:type="MSShapeGroup" transform="translate(1540.955240, 1324.129073) rotate(-311.000000) translate(-1540.955240, -1324.129073) " cx="1540.95524" cy="1324.12907" rx="33.0919422" ry="74.4568699"></ellipse>
            <path d="M603.626332,1204.49091 C619.325615,1253.63115 617.490048,1131.66926 731.049699,1082.96852 C844.609353,1034.26778 863.986236,1025.94956 930.732425,1025.94955 C997.478614,1025.94954 920.216685,969.467032 866.991656,969.467032 C813.766628,969.467032 804.679271,960.631742 755.642442,969.467032 C816.513518,983.246724 796.722985,986.277997 796.722985,997.123364 C796.722985,1007.96873 731.049699,969.467032 668.459393,1011.36841 C713.889718,1008.3436 722.421234,1010.40538 709.093971,1025.94955 C697.854345,1054.53013 608.977923,1036.31664 587.92705,1073.45458 C654.640922,1064.7938 620.999602,1089.74849 620.999602,1089.74849 C620.999602,1089.74849 595.708829,1103.11452 595.708827,1126.82826 C595.708825,1150.542 587.92705,1155.35067 603.626332,1204.49091 Z" id="Path-23" fill="#FFFFFF" sketch:type="MSShapeGroup" transform="translate(772.274265, 1090.740543) rotate(-8.000000) translate(-772.274265, -1090.740543) "></path>
            <path d="M1574.88741,895.039044 C1529.40538,905.315643 1482.51435,921.603084 1458.93634,942.382496 C1435.35834,963.161909 1414.16528,968.949768 1414.16527,943.830269 C1414.16527,918.71077 1432.13316,864.571189 1458.93634,843.513856 C1453.18403,902.943623 1484.72479,867.460271 1484.72479,867.460271 C1484.72479,867.460271 1496.60428,827.142397 1535.74584,812.916736 C1529.03051,871.499815 1560.68114,841.949745 1560.68114,841.949745 C1560.68114,841.949745 1595.94474,807.448815 1635.60983,807.44881 C1594.23844,860.71908 1649.90658,838.983104 1649.90658,838.983104 C1649.90658,838.983104 1667.21522,838.291532 1711.20423,851.896717 C1755.19325,865.5019 1745.12994,895.039044 1745.12994,895.039044 C1745.12994,895.039044 1620.36944,884.762445 1574.88741,895.039044 Z" id="Path-24" fill="#FFFFFF" sketch:type="MSShapeGroup"></path>
            <path d="M1027.76514,1921.18656 C1027.76514,1921.18656 1038.61051,1894.68068 1094.44023,1894.68069 C1150.26996,1894.6807 1188.05424,1883.86764 1226.78215,1898.72024 C1265.51006,1913.57283 1299.68783,1929.27858 1317.08696,1971.81982 C1334.48608,2014.36106 1365.2771,2098.77136 1229.85867,2110.12733 C1094.44023,2121.48331 1067.50133,2037.4931 1081.41028,2000.85999 C1095.31924,1964.22688 1081.72698,1936.61439 1067.50133,1929.80857 C1053.27567,1923.00274 1027.76514,1921.18656 1027.76514,1921.18656 Z" id="Path-31" stroke="#FFFFFF" stroke-width="5" sketch:type="MSShapeGroup"></path>
            <path d="M1125.14077,1890.88032 C1125.14077,1890.88032 1218.25666,1912.90715 1225.7993,2014.21244 C1233.34193,2115.51773 1248.45996,2044.15028 1238.0347,2003.34118 C1227.60945,1962.53209 1199.27448,1904.27218 1155.37594,1890.88032 C1111.47741,1877.48845 1125.14077,1890.88032 1125.14077,1890.88032 Z" id="Path-32" fill="#FFFFFF" sketch:type="MSShapeGroup"></path>
        </g>
    </g>
</svg>