<?xml version="1.0" encoding="UTF-8" standalone="no"?>
<svg width="650px" height="669px" viewBox="0 0 650 669" version="1.1" xmlns="http://www.w3.org/2000/svg" xmlns:xlink="http://www.w3.org/1999/xlink" xmlns:sketch="http://www.bohemiancoding.com/sketch/ns">
    <title>Status_Wolf2</title>
    <description>Created with Sketch (http://www.bohemiancoding.com/sketch)</description>
    <defs></defs>
    <g id="Page-1" stroke="none" stroke-width="1" fill="none" fill-rule="evenodd" sketch:type="MSPage">
        <g id="Group" sketch:type="MSLayerGroup" transform="translate(3.000000, 2.000000)">
            <path d="M103.590309,228.366138 C64.8897263,252.204485 48.1640644,280.005859 48.1640644,280.005859 C-17.8828134,374.261719 1.0859375,430.123047 8.71679687,450.910156 C21.3124999,396.285156 71.9726562,387.253906 71.9726562,387.253906 C31.1914063,426.171875 40.703125,490.464844 48.1640625,507.105469 C54.2890625,475.443359 89.5195312,462.164062 89.5195312,462.164062 C84.4335937,488.167969 90.2851559,519.804687 104.882812,551.25 C119.480469,582.695312 152.75,612.136719 190.101562,631.773438 C227.453125,651.410156 300.570317,667.21875 369.550786,660.011719 C438.531254,652.804687 461.757817,650.207031 526.542973,612.910156 C591.328127,575.61328 616.691354,519.542969 628.34763,490.433594 C640.003906,461.324219 644.906198,428.96875 639.113255,397.171875 C633.320313,365.375 608.222656,342.257805 557.898437,342.257812 C550.435715,342.257814 542.832716,343.010912 535.295155,344.293751 L530.019531,319.244141 L522.589844,285.761719 L503.509766,251.681641 L480.173828,227.150391 L478.868385,224.760619 L478.868385,224.760619 C482.344253,218.06175 503.885896,176.221749 507.975297,160.373998 C512.426612,143.123706 506.470245,128.504292 510.70683,113.713088 C514.943415,98.9218839 515.428982,91.222274 523.257959,79.957565 C531.086936,68.6928557 533.71594,52.9674319 526.231307,49.7285381 C518.746673,46.4896443 506.365781,47.6902356 490.605298,49.728538 C474.844816,51.7668404 445.732317,56.0461155 429.169011,65.1258268 C412.605705,74.2055383 385.719835,86.6747017 375.312153,102.53524 C364.904469,118.395777 344.959634,148.559179 344.959634,148.559179 C344.959634,148.559179 343.518484,154.888508 346.583634,155.498214 L346.526469,155.601576 L346.526469,155.601576 C341.294798,154.708448 336.210949,154.005859 333.164062,154.005859 C326.179277,154.005859 320.467504,155.915377 318.776135,156.544113 C319.982314,151.121037 323.537407,138.372072 331.404297,131.591797 C341.572252,122.82829 302.898436,137.039066 300.253906,145.552734 C300.253906,145.552734 300.818358,133.62305 303.554688,126.457031 C306.291018,119.291013 273.029296,143.259769 273.029297,162.212891 C273.029297,162.212891 267.951169,177.541019 267.951172,163.816406 C267.951174,150.091794 267.458983,130.949222 264.410156,123.957031 C261.36133,116.964841 243.093748,102.634769 221.119141,92.4746094 C199.144533,82.3144501 170.279295,71.9902338 160.070312,58.9765625 C149.86133,45.9628914 137.527344,41.0800785 124.003906,22.3417969 C110.480469,3.60351541 103.730469,-6.33007798 96.1523438,7 C88.5742187,20.3300782 81.3242193,25.8945306 74.59375,58.9765637 C67.8632779,92.0585964 67.7109397,117.564452 74.59375,154.513672 C81.4765625,191.462892 89.0546871,202.208983 94.9160156,213.654297 C98.4524993,220.559927 101.627785,225.518785 103.590309,228.366138 Z M121.892798,218.017773 C154.506703,200.52178 154.519155,205.202068 169.0625,201.144531 C169.0625,201.144531 180.789063,164.71875 193.566406,157.289062 C193.566406,157.289062 193.42434,160.261351 193.583975,164.541016 L214.997289,164.541016 C217.201028,161.436296 219.617103,158.636967 222.203125,156.523438 C222.203125,156.523438 231.391418,175.530914 241.544482,184.275473 L241.544482,184.275473 C243.211237,184.651702 244.634282,184.787124 245.441866,184.835869 L224.900391,143.697266 L116.175781,184.050781 L121.892798,218.017773 L121.892798,218.017773 Z" id="Path-11" fill-opacity="0" fill="#D8D8D8" sketch:type="MSShapeGroup"></path>
            <path d="M333.164062,154.005859 C324.802734,154.005859 318.265625,156.742188 318.265625,156.742188 L321.001953,141.066406 L323.412109,135.050781 C323.412109,135.050781 313.945313,135.888672 308.667969,140.892578 C303.390625,145.896484 299.201172,151.40625 299.201172,151.40625 C299.201172,151.40625 297.464844,145.224609 299.548828,137.189453 C301.632812,129.154297 297.853516,131.257813 297.853516,131.257813 C297.853516,131.257813 284.589844,142.072266 282.158203,148.039063 C279.726562,154.005859 274.386719,166.082031 274.386719,166.082031 C274.386719,166.082031 272.671875,172.291014 269.392578,172.291016 C266.113281,172.291017 246.154297,184.863281 246.154297,184.863281 C246.154297,184.863281 238.402344,184.861327 233.625,180.410156 C228.847656,175.958986 221.400391,164.541016 221.400391,164.541016 L189.708984,164.541016 L178.875,182.841797 L172.144531,202.919922 L127.871094,217.732422 L88.1230469,244.369141 L52.4785156,280.943359 L24.6289062,328.505859 L10.9023437,365.146484 L6.56054687,412.376953 L9.97070312,433.892578 L26.5976562,406.021484 L66.4296875,383.990234 L75.5488281,383.990234 L65.6933594,403.421875 L48.5664062,447.617188 L48.8730469,490.691406 L73.2929687,465.75 L94.3300781,455.742188 L94.4941406,492.021484 L103.716797,538.041016 L124.380859,574.117188 L160.634766,609.371094 L202.683594,632.228516 L272.763672,653.71875 L346.242188,656.474609 L413.203125,652.175781 L471.052734,637.611328 L520.197266,613.773438 L572.123047,574.462891 L606.634766,528.185547 L628.136719,482.892578 L638.208984,438.783203 L635.277344,396.478516 L624.123047,368.257813 L594.882812,350.283203 L555.417969,344.226563 L535.921875,347.269531 L530.019531,319.244141 L522.589844,285.761719 L503.509766,251.681641 L480.173828,227.150391 L461.332031,192.658203 L415.546875,131.681641 L387.583984,135.570313 L365.226563,159.296875 C365.226563,159.296875 341.525391,154.005859 333.164062,154.005859 Z" id="Path-11" fill="#FFFFFF" sketch:type="MSShapeGroup"></path>
            <path d="M346.03125,156.203125 L360.921875,129.21875 L382.431641,97.4160156 L418.617187,73.9960938 L456.408203,58.0214844 L507.3125,49.8808594 L525.980469,51.4433594 L528.542969,59.2167969 L524.439453,73.8710938 L514.625,91.9765625 L508.589844,116.898437 L508.589844,143.595703 L501.839844,168.195312 L486.642578,203.541016 L475.828125,223.710938 L450.886719,204.652344 L426.273437,187.525391 L406.019531,181.488281 L413.054687,169.787109 L418.958984,160.494141 L406.734375,166.333984 L391.185547,171.501953 L393.052734,165.3125 L404.103516,146.095703 L395.261719,152.527344 L386.253906,159.083984 C386.253906,159.083984 381.691406,160.839844 374.65625,160.839844 C367.621094,160.839844 360.115234,162.785156 355.376953,159.494141 C350.638672,156.203125 346.03125,156.203125 346.03125,156.203125 Z" id="Path-9" fill="#FFFFFF" sketch:type="MSShapeGroup"></path>
            <path d="M108.431641,230.349609 C108.431641,230.349609 91.1308591,206.304688 91.1308594,200.546875 C91.1308594,194.789062 76.8222652,165.945312 76.8222656,150.505859 C76.8222656,135.066406 70.3496096,114.986328 73.5859375,91.9550781 C76.8222656,68.9238281 83.6777344,35.84375 83.6777344,35.84375 L95.4648438,12.2695312 L106.015625,7 L117.371094,16.3535156 L135.060547,39.0175781 L162.259766,65.6113281 C162.259766,65.6113281 199.083982,87.6171911 212.724609,92.8730469 C226.365236,98.1289062 250.853516,114.236328 250.853516,114.236328 C250.853516,114.236328 261.556639,122.265625 261.556641,126.501953 C261.556643,130.738281 266.029297,159.845703 266.029297,159.845703 L266.029297,174.542969 C266.029297,174.542969 261.48242,181.841797 256.167969,184.425781 C250.853518,187.009766 246.527344,187.009766 246.527344,187.009766 L224.900391,143.697266 L116.175781,184.050781 L122.273438,220.279297 L108.431641,230.349609 Z" id="Path-10" sketch:type="MSShapeGroup"></path>
            <path d="M124.523438,221.892578 C124.523438,221.892578 104.373048,197.21289 99.6152344,178.474609 C94.8574219,159.736328 88.1074214,149.212891 88.1074219,130.996094 C88.1074219,112.779297 88.1464842,92.207031 92.0996094,74.8574219 C96.0527344,57.5078125 100.201172,39.339845 104.150391,35.4082031 C108.099609,31.4765625 113.574219,30.9765625 113.574219,30.9765625 L121.109375,43.984375 C121.109375,43.984375 136.195313,62.6132775 143.904297,67.5644531 C151.613281,72.515625 164.52539,85.5585982 175.339844,90.9003906 C186.154297,96.2421875 217.304688,112.369141 217.304688,112.369141 C217.304688,112.369141 240.751953,124.621094 240.751953,127.808594 C240.751953,130.996094 247.544922,134.998047 247.544922,142.421875 C247.544922,149.845703 250.476563,163.298828 247.933594,173.355469 C245.390625,183.412109 247.324219,190.560547 239.724609,184.517578 C232.125,178.474609 225.875,168.494141 225.875,168.494141 L221.8125,161.521484 L213.277344,172.292969 L206.199219,185.496094 L202.095703,196.199219 C202.095703,196.199219 195.27539,192.554688 195.275391,187.337891 C195.275391,182.121094 190.802734,163.667969 190.802734,163.667969 L185.892578,169.855469 L176.751953,189.873047 L172.779297,203.005859 L154.345703,208.478516 L138.052734,213.646484 L124.523438,221.892578 Z" id="Path-7" sketch:type="MSShapeGroup"></path>
            <path d="M362.121094,155.716797 C362.121094,155.716797 361.246094,151.033203 368.914063,138.935547 C376.582031,126.837891 389.14453,106.287111 399.396484,99.9667969 C409.648439,93.6464844 416.183592,87.2695295 437.783203,80.296875 C459.382814,73.3242187 470.330077,69.7460926 481.623047,66.2734375 C492.916017,62.8007812 509.974608,64.378906 512.126953,64.3789062 C514.279298,64.3789065 510.695313,74.109375 510.695313,74.109375 L503.443359,86.3320312 C503.443359,86.3320312 494.283201,101.20117 494.283203,107.542969 C494.283204,113.884767 491.046875,134.574219 491.046875,134.574219 C491.046875,134.574219 491.701171,155.507814 489.658203,158.958984 C487.615235,162.410154 477.496094,186.767578 477.496094,186.767578 L464.121094,213.667969 L454.175781,207.632813 L427.837891,188.414062 L405.197266,180.449219 L412.40625,170.634766 L418.572266,160.425781 L407.669922,166.267578 L393.382813,171.044922 L389.451172,169.544922 L397.550781,160.230469 L403.453125,147.138672 L397.654297,151.201172 L388.708984,157.257812 L379.152344,160.453125 L366.429688,160.994141 L362.121094,155.716797 Z" id="Path-8" sketch:type="MSShapeGroup"></path>
            <path d="M473.613281,368.044922 L457.701172,335.373047 L457.181641,319.09375 L486.579102,295.87207 L529.037109,311.738281 L533.900391,332.878906 L535.462891,348.097656 L502.269531,355.910156 L473.613281,368.044922 Z" id="Path" fill="#FFFFFF" sketch:type="MSShapeGroup"></path>
            <path d="M497.130859,356.082031 C513.147118,356.082031 540.199217,356.082031 531.496096,328.968325 C522.792975,301.854619 523.730471,296.000003 500.221205,296 C476.711939,295.999997 471.221205,309.430147 471.221205,325.997075 C471.221205,342.564002 481.114601,356.082031 497.130859,356.082031 Z" id="Oval-6" stroke="#FFFFFF" stroke-width="4" fill="#FFFFFF" sketch:type="MSShapeGroup"></path>
            <ellipse id="Oval-7" fill="#FFFFFF" sketch:type="MSShapeGroup" transform="translate(503.072266, 322.535156) rotate(-14.000000) translate(-503.072266, -322.535156) " cx="503.072266" cy="322.535156" rx="12" ry="22"></ellipse>
            <path d="M496.356186,313.943492 C492.338034,316.568692 493.229067,322.369246 495.30778,320.591286 C497.386494,318.813327 500.73102,316.677337 503.820573,318.377139 C506.910125,320.07694 507.423266,312.642863 503.820573,312.642864 C500.217879,312.642864 500.374338,311.318293 496.356186,313.943492 Z" id="Rectangle-2" fill="#FFFFFF" sketch:type="MSShapeGroup" transform="translate(499.939560, 316.616404) rotate(-26.000000) translate(-499.939560, -316.616404) "></path>
            <path d="M557.898437,342.257812 C608.222656,342.257805 633.320313,365.375 639.113255,397.171875 C644.906198,428.96875 640.003906,461.324219 628.34763,490.433594 C616.691354,519.542969 591.328127,575.61328 526.542973,612.910156 C461.757817,650.207031 438.531254,652.804687 369.550786,660.011719 C300.570317,667.21875 227.453125,651.410156 190.101562,631.773438 C152.75,612.136719 119.480469,582.695312 104.882812,551.25 C90.2851559,519.804687 84.4335937,488.167969 89.5195312,462.164062 C89.5195312,462.164062 54.2890625,475.443359 48.1640625,507.105469 C40.703125,490.464844 31.1914063,426.171875 71.9726562,387.253906 C71.9726562,387.253906 21.3124999,396.285156 8.71679687,450.910156 C1.0859375,430.123047 -17.8828134,374.261719 48.1640644,280.005859 C48.1640644,280.005859 66.9609383,248.761719 110.808594,224.117188 C154.65625,199.472657 153.03125,205.617188 169.0625,201.144531 C169.0625,201.144531 180.789063,164.71875 193.566406,157.289062 C193.566406,157.289062 192.316405,183.441407 201.398437,192.292969 C201.398437,192.292969 209.867189,166.60547 222.203125,156.523438 C222.203125,156.523438 234.53418,182.032227 246.411135,187.542969 C250.808642,189.583351 224.787106,184.664062 222.203122,168.029297 C222.203122,168.029297 208.390622,178.876953 203.654294,203.455078 C203.654294,203.455078 189.624999,190.607422 189.625,168.029297 C189.625,168.029297 180.062496,182.835937 174.742184,209.701172 C174.742184,209.701172 147.992185,208.548829 115.078122,230.537109 C82.1640592,252.525391 79.5703125,252.414062 56.7968737,283.023438 C40.7167969,303.839844 37.6542956,311.744141 26.9316413,336.289062 C16.208989,360.833985 10.8984391,407.736328 10.8984374,425.167969 C10.8984374,425.167969 29.2167931,376.078122 83.3632779,380.376953 C83.3632779,380.376953 69.9511686,393.769531 59.2695317,429.947266 C59.2695317,429.947266 50.5097596,452.439453 50.5097656,481.595703 C50.5097656,481.595703 77.1699177,450.910159 98.5331998,450.910156 C98.5331998,450.910156 96.0390597,527.533203 121.820309,563.28125 C147.601559,599.029297 158.390619,603.121095 203.654294,628.111328 C248.917966,653.101562 361.066402,653.531251 383.33984,651.162109 C405.613279,648.792969 471.548825,641.267579 512.865231,612.910156 C554.181638,584.552734 584.623076,567.253907 616.890652,498.417969 C616.890652,498.417969 633.275416,469.605469 633.275418,435.775391 C633.275419,401.945312 630.517605,369.097656 603.277371,357.332031 C576.037137,345.566406 559.941433,347.185547 541.097683,350.201172 C522.253934,353.216797 493.189448,357.982421 471.699215,374.210938 C450.208982,390.439453 450.871095,376.503906 450.871095,376.503906 C450.871095,376.503906 507.574219,342.25782 557.898437,342.257812 Z" id="Path-1" fill="#FFFFFF" sketch:type="MSShapeGroup"></path>
            <path d="M243.715828,186.81446 C243.715828,186.81446 250.886719,146.167969 239.679688,131.570312 C228.472656,116.972656 174.628906,95.9960949 152.363281,77.2851562 C130.097656,58.5742187 119.746094,51.3281243 112.882812,35.6874997 C106.019531,20.0468747 88.822268,80.2617185 88.8222656,113.140625 C88.8222637,146.019531 98.1083971,168.01075 105.484375,186.81446 C112.860351,205.618171 124.243164,220.230476 124.243164,220.230476 L120.289062,222.855469 C120.289062,222.855469 94.7050794,190.669919 88.8222657,152.031247 C82.9394531,113.392575 83.996093,96.9628906 91.8164059,59.0019538 C99.6367184,21.0410169 116.207032,25.5898435 120.289062,35.6874999 C124.371094,45.785156 131.152344,51.6464851 139.164063,59.0019538 C147.175782,66.3574226 163.892568,82.4570249 188.666012,94.2890594 C213.439457,106.121091 245.785161,123.177731 249.361332,136.785153 C252.937504,150.392575 250.651277,180.137221 246.980476,188.062507" id="Path-2" fill="#FFFFFF" sketch:type="MSShapeGroup"></path>
            <path d="M110.480469,227.402344 C110.480469,227.402344 88.7871098,208.777345 79.1835937,149.132814 C69.5800781,89.4882825 81.324219,75.63672 81.3242192,62.871095 C81.3242192,50.10547 89.2421857,17.9433639 101.445312,13.0800784 C114.167969,13.5585937 115.474607,19.001955 124.919922,32.4902344 C134.365236,45.9785156 162.01367,69.4003975 177.884766,78.8652344 C193.755861,88.3300751 228.677732,103.261722 238.386719,109.277344 C248.095705,115.292966 259.472655,126.236331 259.472656,134.335938 C259.472658,142.435544 265.464842,174.210941 261.361328,178.537109 C261.361328,178.537109 270.23242,178.437503 274.142578,171.076172 C278.052736,163.714841 282.253905,144.900395 297.609375,135.933594 C297.609375,135.933594 292.718748,149.326175 295.164062,160.201172 C295.164062,160.201172 304.921873,141.488285 319.583984,138.710938 C319.583984,138.710938 313.146482,147.103519 318.271484,159.089844 C318.271484,159.089844 321.236341,140.355303 331.404297,131.591797 C341.572252,122.82829 302.898436,137.039066 300.253906,145.552734 C300.253906,145.552734 300.818358,133.62305 303.554688,126.457031 C306.291018,119.291013 273.029296,143.259769 273.029297,162.212891 C273.029297,162.212891 267.951169,177.541019 267.951172,163.816406 C267.951174,150.091794 267.458983,130.949222 264.410156,123.957031 C261.36133,116.964841 243.093748,102.634769 221.119141,92.4746094 C199.144533,82.3144501 170.279295,71.9902338 160.070312,58.9765625 C149.86133,45.9628914 137.527344,41.0800785 124.003906,22.3417969 C110.480469,3.60351541 103.730469,-6.33007798 96.1523438,7 C88.5742187,20.3300782 81.3242193,25.8945306 74.59375,58.9765637 C67.8632779,92.0585964 67.7109397,117.564452 74.59375,154.513672 C81.4765625,191.462892 89.0546871,202.208983 94.9160156,213.654297 C100.777344,225.099611 105.646484,231.197266 105.646484,231.197266" id="Path-3" fill="#FFFFFF" sketch:type="MSShapeGroup"></path>
            <path d="M363.808594,152.543945 C362.790039,149.179688 359.044832,152.541457 359.113281,154.568359 C359.435961,164.12351 367.638672,163.113281 367.638672,163.113281 C367.638672,163.113281 383.751953,163.142578 390.634766,158.855469 C397.517578,154.568359 401.449219,147.972656 401.449219,147.972656 C401.449219,147.972656 393.90039,163.05664 387.947266,167.683594 C381.994141,172.310547 389.509766,174.677734 389.509766,174.677734 C389.509766,174.677734 405.074219,172.244141 415.609375,163.40625 C415.609375,163.40625 404.546875,178.720703 398.773438,181.068359 C393,183.416016 419.310548,184.173826 432.818359,194.382812 C446.326172,204.591797 487.250001,234.025389 495.347656,246.013672 C503.445313,258.001953 520.484374,283.21875 524.935547,308.556641 C529.386719,333.894531 532.775391,347.443359 532.775391,347.443359 L540.589844,347.443359 C540.589844,347.443359 530.117186,261.619142 479.720703,223.162109 C429.324219,184.705078 438.005859,190.919922 408.841797,177.779297 C408.841797,177.779297 422.830078,163.333984 422.830078,154.568359 C422.830078,154.568359 403.8125,168.771484 393,168.771484 C393,168.771484 408.253906,148.115234 408.253906,137.496094 C408.253906,137.496094 391.114258,163.615234 367.638672,160.018555 C361.067383,156.63086 363.808594,152.543945 363.808594,152.543945 Z" id="Path-4" fill="#FFFFFF" sketch:type="MSShapeGroup"></path>
            <path d="M439.68359,80.3105469 C491.058586,66.0781254 496.546879,65.1621116 506.166016,65.1621094 C515.785153,65.1621075 507.685547,74.1230469 507.685547,74.1230469 C507.685547,74.1230469 493.12891,92.6562482 490.197266,113.324219 C487.265621,133.992189 492.077148,150.912109 480.361328,175.886719 C475.995117,186.545898 470.764648,197.724609 462.975586,211.313477 L467,214.231445 C467,214.231445 487.634769,170.473631 490.197266,162.393555 C492.759762,154.313478 491.642581,135.298826 494.441406,117.802734 C497.240231,100.306642 506.964848,81.4843757 512.611328,75.1015625 C518.257809,68.7187501 520.563477,61.7724611 503.213863,61.7724609 C489.299853,61.7724608 425.174687,75.5033024 401.759766,94.5429688 C387.983399,105.745117 367.506836,130.666992 359.387695,153.645508 C360.693359,160.238281 364.518555,152.045898 365.123047,149.299316 C365.123047,149.299316 388.308594,94.5429688 439.68359,80.3105469 Z" id="Path" fill="#FFFFFF" sketch:type="MSShapeGroup"></path>
            <path d="M352.816406,152.402344 C352.816406,152.402344 373.947268,104.275394 400.652345,88.5585948 C427.357423,72.8417979 444.15625,62.138675 476.097656,58.3398437 C508.039062,54.5410156 516.566406,51.5195312 521.498047,57.2773437 C526.429688,63.0351562 523.996093,67.3964847 520.740234,73.890625 C517.484375,80.3847652 508.76172,95.7675786 506.392578,111.728516 C504.023437,127.689453 505.390624,144.310547 501.091797,156.582031 C496.792969,168.853515 484.664063,198.720696 480.380859,206.019531 C476.097656,213.318367 472.777344,220.658203 472.777344,220.658203 L479.681641,226.173828 C479.681641,226.173828 505.052735,177.556641 509.546875,160.101563 C514.041016,142.646484 508.027344,127.853516 512.304688,112.886719 C516.582031,97.9199214 517.07227,90.1289058 524.976567,78.7304681 C532.880864,67.3320302 535.535161,51.4199225 527.978521,48.1425782 C520.42188,44.865234 507.921875,46.0800781 492.009766,48.1425781 C476.097656,50.2050781 446.705076,54.5351546 429.982419,63.7226554 C413.259763,72.9101564 386.115233,85.5273471 375.607421,101.576173 C365.099609,117.624998 344.962891,148.146484 344.962891,148.146484 C344.962891,148.146484 342.123047,160.646484 352.816406,152.402344 Z" id="Path-6" fill="#FFFFFF" sketch:type="MSShapeGroup"></path>
            <path d="M227.056641,518.521484 C227.056641,518.521484 257.767578,546.408195 310.470703,546.408203 C363.173828,546.408211 372.308595,545.408204 402.853516,541.435547 C433.398438,537.462891 456.193359,527.126953 456.193359,527.126953 C456.193359,527.126953 474.580081,521.951172 468.390625,538.044922 C462.201172,554.138672 421.027349,581.273439 372.296875,585.59375 C323.566401,589.914061 283.824222,584.445314 259.898439,572.521486 C235.972658,560.597657 254.119142,548.158203 240.587891,540.949219 C227.056641,533.740234 224.189452,534.408203 218.542969,525.267578 C212.896484,516.126953 227.056641,518.521484 227.056641,518.521484 Z" id="Path-12" stroke="#FFFFFF" stroke-width="6" fill="#FFFFFF" sketch:type="MSShapeGroup"></path>
            <path d="M277.359375,545.208008 C277.359375,545.208008 278.257509,562.424497 286.810742,562.424495 C295.363976,562.424494 298,548.353723 298,548.353723 C298,548.353723 293.004127,549.171026 286.810742,548.353723 C280.617358,547.536421 277.359375,545.208008 277.359375,545.208008 Z" id="Path-13" stroke="#FFFFFF" stroke-width="2" fill="#FFFFFF" sketch:type="MSShapeGroup"></path>
            <path d="M388.352539,546.260742 C388.352539,546.260742 399.507812,559.026367 406.674805,557.939453 C413.841797,556.852539 413.841797,541.530273 413.841797,541.530273 C413.841797,541.530273 409.074219,543.833008 400.950479,545.107422 C392.826738,546.381835 388.352539,546.260742 388.352539,546.260742 Z" id="Path-14" stroke="#FFFFFF" stroke-width="3" fill="#FFFFFF" sketch:type="MSShapeGroup"></path>
            <path d="M325.289062,424.572266 C299.347656,437.664062 293.320313,445.019531 278.248047,449.429687 C263.175781,453.839844 254.017578,453.483399 249.738281,445.242187 C245.458984,437.000977 235.34571,431.330078 235.345703,399.527344 C235.345699,367.724609 240.408202,353.773437 258.515625,341.722656 C276.623047,329.671875 297.355469,318.279297 311.322266,320.363281 C325.289062,322.447266 341.994141,329.800781 347.640625,338.941406 C353.287109,348.082031 359.46875,357.324219 365.15625,364.685547 C370.84375,372.046875 373.279297,380.888676 375.580078,388.904301 C377.880859,396.919926 379.337891,406.990234 367.482422,409.226566 C355.626953,411.462898 351.230469,411.480469 325.289062,424.572266 Z" id="Path-16" fill="#FFFFFF" sketch:type="MSShapeGroup"></path>
            <path d="M275.390625,336.794922 C317.681641,316.052734 337.078127,333.111328 344.044924,346.30664 C351.011721,359.501952 372.98437,379.962892 366.037112,403.509767 C328.4375,415.101562 351.246096,406.572267 314.123049,424.462892 C277.000004,442.353519 263.826172,457.078127 248.914062,433.351562 C234.001953,409.624997 233.099609,357.53711 275.390625,336.794922 Z" id="Path-15" fill="#FFFFFF" sketch:type="MSShapeGroup"></path>
            <path d="M295.53125,434.166992 C310.001503,426.711949 324.084353,419.703646 334.147461,414.608398 C344.081481,409.578513 348.898098,409.374165 359.066406,406.765625 C362.696289,405.875977 362,397.269485 362,386 C362,357.281192 337.823378,334 308,334 C278.176622,334 254,357.281192 254,386 C254,414.718808 265.707872,434.166992 295.53125,434.166992 Z" id="Oval-4" stroke="#FFFFFF" stroke-width="5" sketch:type="MSShapeGroup"></path>
            <path d="M307.488888,412.502269 C321.98034,412.502269 336.344984,398.313325 336.344984,379.815159 C336.344984,361.316994 330.398685,343.731368 315.907233,343.731368 C301.415781,343.731368 283.866797,361.316994 283.866797,379.815159 C283.866797,398.313325 292.997436,412.502269 307.488888,412.502269 Z" id="Oval-5" fill="#FFFFFF" sketch:type="MSShapeGroup" transform="translate(310.105890, 378.116819) rotate(-21.000000) translate(-310.105890, -378.116819) "></path>
            <path d="M291.818303,361.343662 C285.155851,364.49183 286.785009,371.377932 291.818303,368.641585 C296.851596,365.905237 306.606463,364.383251 312.828467,368.641585 C319.050472,372.899919 317.691487,363.72724 311.118899,361.343662 C304.546312,358.960083 298.480753,358.195493 291.818303,361.343662 Z" id="Rectangle-1" fill="#FFFFFF" sketch:type="MSShapeGroup" transform="translate(302.125736, 364.506713) rotate(-42.000000) translate(-302.125736, -364.506713) "></path>
            <path d="M239.933594,407.794919 C241.732422,407.794919 243.490471,379.308997 256.399414,363.500977 C271.640623,344.836914 277.374026,342.147015 301.780272,334.428711 C326.186518,326.710411 346.324218,347.36143 346.324218,347.36143 L338.551757,335.675567 C338.551757,335.675567 329.412108,327.674794 316.486327,325.761133 C303.560546,323.847472 304.473632,325.796939 291.589843,328.781813 C278.706053,331.766685 278.042968,334.095106 267.440429,339.990256 C256.83789,345.885406 255.789063,350.516385 250.125977,358.021835 C244.462889,365.527284 241.128906,378.132184 239.933594,390.117431 C238.738282,402.102677 238.134766,407.794919 239.933594,407.794919 Z" id="Path-17" fill="#FFFFFF" sketch:type="MSShapeGroup"></path>
            <path d="M241.149414,415.134766 C241.149414,415.134766 241.297851,402.98633 244.910156,394.072266 C248.522461,385.158202 252.77246,371.291015 265.81543,357.369141 C278.858398,343.447266 299.447266,338.975586 309.677734,336.698243 C319.908203,334.420899 334.999023,339.686524 341.595703,345.549805 C348.192383,351.413086 349.561523,347.172852 349.561523,347.172852 C349.561523,347.172852 341.753906,336.095703 323.836914,333.138672 C305.919922,330.181641 301.886719,333.853516 291.703125,336.698242 C281.519531,339.542969 266.487305,349.44043 259.191406,359.447266 C251.895507,369.454101 250.457031,371.563475 247.088867,378.860353 C243.720704,386.157231 238.568359,399.434572 238.568359,403.928712 C238.56836,408.422852 241.149414,415.134766 241.149414,415.134766 Z" id="Path-18" fill="#FFFFFF" sketch:type="MSShapeGroup"></path>
            <path d="M458.384766,320.916016 L482.066406,296.333984 L503.993164,293.53418 C503.993164,293.53418 510.394346,296.637457 517.036133,297.679688 C519.729307,298.102301 529.695312,313.296875 529.695312,313.296875 L525.263672,299.748047 C525.263672,299.748047 522.993271,295.067939 519.166992,291.955078 C515.65538,289.098213 510.587891,287.808594 510.587891,287.808594 L492.091797,286.417969 L475.589844,291.955078 L463.824219,303.394531 L458.384766,320.916016 Z" id="Path-21" sketch:type="MSShapeGroup"></path>
            <path d="M524.883792,296.496094 C524.883792,296.496094 521.132811,284.048828 499.880858,284.048828 C478.628905,284.048828 472.058594,289.294922 464.474609,298.732422 C456.890623,308.169921 449.376953,322.222656 452.939453,330.453125 C455.985053,337.489397 465.741176,359.331356 468.508182,365.521529 C468.977798,366.572126 469.246094,367.171875 469.246094,367.171875 L475.539063,365.630859 C475.539063,365.630859 458.238281,333.584961 458.238281,328.054688 C458.238282,322.524414 465.425781,300.322266 475.539062,294.808594 C485.652343,289.294922 496.452148,288.290039 503.144531,289.294922 C509.836914,290.299805 514.006839,290.345703 518.250003,293.420898 C522.493167,296.496094 528.171878,305.611328 528.171878,305.611328 L524.883792,296.496094 Z" id="Path-19" fill="#FFFFFF" sketch:type="MSShapeGroup"></path>
            <path d="M457.095703,323.960938 C457.095703,323.960938 478.085938,295.687497 499.296875,295.6875 C520.507812,295.687503 530.451172,316.167969 530.451172,316.167969 L529.410156,311.195312 C529.410156,311.195312 519.411133,290.584961 497.501953,292.438476 C475.463867,292.588867 458.568359,318.078125 458.568359,318.078125 L457.095703,323.960938 Z" id="Path-20" fill="#FFFFFF" sketch:type="MSShapeGroup"></path>
            <path d="M487.641982,468.624974 C522.988208,468.624974 560.457931,427.370467 560.457931,400.308513 C560.457931,373.246559 531.388658,359.098441 487.641982,363.70083 C446.881199,365.59696 423.641982,390.12364 423.641982,417.185594 C423.641982,444.247548 452.295757,468.624974 487.641982,468.624974 Z" id="Oval-2" fill="#FFFFFF" sketch:type="MSShapeGroup" transform="translate(492.049956, 415.733719) rotate(-11.000000) translate(-492.049956, -415.733719) "></path>
            <ellipse id="Oval-3" fill="#FFFFFF" sketch:type="MSShapeGroup" transform="translate(470.960938, 398.042969) rotate(-311.000000) translate(-470.960938, -398.042969) " cx="470.960938" cy="398.042969" rx="10" ry="22.5"></ellipse>
            <path d="M182.711045,364.889708 C187.455185,379.739317 186.900498,342.883851 221.216904,328.167053 C255.53331,313.450257 261.388779,310.936588 281.558701,310.936585 C301.728623,310.936581 278.380966,293.868225 262.296982,293.868225 C246.212998,293.868225 243.466904,291.198303 228.648545,293.868225 C247.043076,298.032288 241.062607,298.948303 241.062607,302.225647 C241.062607,305.502991 221.216904,293.868225 202.302841,306.530335 C216.031357,305.616272 218.609482,306.239319 214.582138,310.936585 C211.185654,319.573303 184.328233,314.069398 177.966904,325.292053 C198.12706,322.674866 187.961045,330.215882 187.961045,330.215882 C187.961045,330.215882 180.318467,334.254943 180.318466,341.420958 C180.318466,348.586973 177.966904,350.040099 182.711045,364.889708 Z" id="Path-23" fill="#FFFFFF" sketch:type="MSShapeGroup" transform="translate(233.674488, 330.515670) rotate(-8.000000) translate(-233.674488, -330.515670) "></path>
            <path d="M476.214844,271.376953 C462.470703,274.482422 448.300781,279.404297 441.175781,285.683594 C434.050781,291.962891 427.646486,293.711914 427.646484,286.121094 C427.646483,278.530273 433.076171,262.169922 441.175781,255.806641 C439.4375,273.765625 448.96875,263.042969 448.96875,263.042969 C448.96875,263.042969 452.558595,250.859376 464.386719,246.560547 C462.357422,264.263672 471.921875,255.333984 471.921875,255.333984 C471.921875,255.333984 482.578125,244.908205 494.564453,244.908203 C482.0625,261.005859 498.884766,254.4375 498.884766,254.4375 C498.884766,254.4375 504.115235,254.228515 517.408203,258.339844 C530.701172,262.451172 527.660156,271.376953 527.660156,271.376953 C527.660156,271.376953 489.958984,268.271485 476.214844,271.376953 Z" id="Path-24" fill="#FFFFFF" sketch:type="MSShapeGroup"></path>
            <path d="M310.880859,581.466797 C310.880859,581.466797 314.158203,573.457029 331.029297,573.457031 C347.900391,573.457034 359.31836,570.189453 371.021484,574.677734 C382.724609,579.166016 393.052734,583.912112 398.310547,596.767579 C403.568359,609.623045 412.873047,635.130857 371.951172,638.5625 C331.029297,641.994143 322.888672,616.61328 327.091797,605.543181 C331.294921,594.473082 327.1875,586.128906 322.888672,584.072266 C318.589844,582.015626 310.880859,581.466797 310.880859,581.466797 Z" id="Path-31" stroke="#FFFFFF" stroke-width="5" fill="#FFFFFF" sketch:type="MSShapeGroup"></path>
            <path d="M340.306641,572.308604 C340.306641,572.308604 368.445181,578.964854 370.724477,609.578135 C373.003774,640.191416 377.572265,618.625002 374.421875,606.292968 C371.271485,593.960934 362.708985,576.355469 349.443359,572.308604 C336.177734,568.261737 340.306641,572.308604 340.306641,572.308604 Z" id="Path-32" fill="#FFFFFF" sketch:type="MSShapeGroup"></path>
        </g>
    </g>
</svg>
